<mxfile host="app.diagrams.net" agent="Mozilla/5.0 (X11; Linux x86_64) AppleWebKit/537.36 (KHTML, like Gecko) Chrome/133.0.0.0 Safari/537.36" version="27.2.0">
  <diagram name="Page-1" id="9djsTnGG_bTg0ogvLPij">
    <mxGraphModel dx="935" dy="996" grid="1" gridSize="10" guides="1" tooltips="1" connect="1" arrows="1" fold="1" page="1" pageScale="1" pageWidth="850" pageHeight="1100" math="0" shadow="0">
      <root>
        <mxCell id="0" />
        <mxCell id="1" parent="0" />
        <mxCell id="UJ4RQ-W1k6a4QR2SdNRj-1" value="" style="edgeStyle=orthogonalEdgeStyle;rounded=0;orthogonalLoop=1;jettySize=auto;html=1;strokeColor=#DDA15E;fontColor=default;fillColor=#BC6C25;labelBackgroundColor=none;" edge="1" parent="1" source="UJ4RQ-W1k6a4QR2SdNRj-2" target="UJ4RQ-W1k6a4QR2SdNRj-4">
          <mxGeometry relative="1" as="geometry" />
        </mxCell>
        <mxCell id="UJ4RQ-W1k6a4QR2SdNRj-2" value="&lt;font style=&quot;font-size: 18px; color: light-dark(rgb(26, 64, 255), rgb(0, 0, 0));&quot;&gt;&lt;b&gt;Start&lt;/b&gt;&lt;/font&gt;" style="rounded=1;whiteSpace=wrap;html=1;labelBackgroundColor=none;fillColor=#BC6C25;strokeColor=#DDA15E;fontColor=#FEFAE0;" vertex="1" parent="1">
          <mxGeometry x="276" y="200" width="75" height="40" as="geometry" />
        </mxCell>
        <mxCell id="UJ4RQ-W1k6a4QR2SdNRj-3" value="" style="edgeStyle=orthogonalEdgeStyle;rounded=0;orthogonalLoop=1;jettySize=auto;html=1;strokeColor=#DDA15E;fontColor=default;fillColor=#BC6C25;labelBackgroundColor=none;" edge="1" parent="1" source="UJ4RQ-W1k6a4QR2SdNRj-4" target="UJ4RQ-W1k6a4QR2SdNRj-10">
          <mxGeometry relative="1" as="geometry" />
        </mxCell>
        <mxCell id="UJ4RQ-W1k6a4QR2SdNRj-4" value="&lt;b style=&quot;color: rgb(0, 0, 0); font-size: 18px;&quot;&gt;Input typ of toys&lt;/b&gt;" style="shape=parallelogram;perimeter=parallelogramPerimeter;whiteSpace=wrap;html=1;fixedSize=1;labelBackgroundColor=none;fillColor=#BC6C25;strokeColor=#DDA15E;fontColor=#FEFAE0;" vertex="1" parent="1">
          <mxGeometry x="171" y="280" width="285" height="40" as="geometry" />
        </mxCell>
        <mxCell id="UJ4RQ-W1k6a4QR2SdNRj-5" value="" style="edgeStyle=orthogonalEdgeStyle;rounded=0;orthogonalLoop=1;jettySize=auto;html=1;strokeColor=#DDA15E;fontColor=default;fillColor=#BC6C25;labelBackgroundColor=none;" edge="1" parent="1" source="UJ4RQ-W1k6a4QR2SdNRj-6" target="UJ4RQ-W1k6a4QR2SdNRj-12">
          <mxGeometry relative="1" as="geometry" />
        </mxCell>
        <mxCell id="UJ4RQ-W1k6a4QR2SdNRj-6" value="&lt;b style=&quot;color: rgb(0, 0, 0); font-size: 18px;&quot;&gt;pr = (typ * (typ - 1)) / 2;&lt;/b&gt;" style="rounded=0;whiteSpace=wrap;html=1;strokeColor=#DDA15E;fontColor=#FEFAE0;fillColor=#BC6C25;labelBackgroundColor=none;" vertex="1" parent="1">
          <mxGeometry x="172" y="510" width="285" height="40" as="geometry" />
        </mxCell>
        <mxCell id="UJ4RQ-W1k6a4QR2SdNRj-7" value="" style="edgeStyle=orthogonalEdgeStyle;rounded=0;orthogonalLoop=1;jettySize=auto;html=1;strokeColor=#DDA15E;fontColor=default;fillColor=#BC6C25;labelBackgroundColor=none;" edge="1" parent="1" source="UJ4RQ-W1k6a4QR2SdNRj-10" target="UJ4RQ-W1k6a4QR2SdNRj-6">
          <mxGeometry relative="1" as="geometry" />
        </mxCell>
        <mxCell id="UJ4RQ-W1k6a4QR2SdNRj-8" style="edgeStyle=orthogonalEdgeStyle;rounded=0;orthogonalLoop=1;jettySize=auto;html=1;entryX=1;entryY=0.5;entryDx=0;entryDy=0;exitX=1;exitY=0.5;exitDx=0;exitDy=0;labelBackgroundColor=none;strokeColor=#DDA15E;fontColor=default;" edge="1" parent="1" source="UJ4RQ-W1k6a4QR2SdNRj-16" target="UJ4RQ-W1k6a4QR2SdNRj-13">
          <mxGeometry relative="1" as="geometry">
            <mxPoint x="480" y="740" as="targetPoint" />
            <Array as="points">
              <mxPoint x="680" y="410" />
              <mxPoint x="680" y="690" />
            </Array>
          </mxGeometry>
        </mxCell>
        <mxCell id="UJ4RQ-W1k6a4QR2SdNRj-9" value="" style="edgeStyle=orthogonalEdgeStyle;rounded=0;orthogonalLoop=1;jettySize=auto;html=1;labelBackgroundColor=none;strokeColor=#DDA15E;fontColor=default;" edge="1" parent="1" source="UJ4RQ-W1k6a4QR2SdNRj-10" target="UJ4RQ-W1k6a4QR2SdNRj-16">
          <mxGeometry relative="1" as="geometry" />
        </mxCell>
        <mxCell id="UJ4RQ-W1k6a4QR2SdNRj-10" value="&lt;b style=&quot;color: rgb(0, 0, 0); font-size: 18px;&quot;&gt;if 2&amp;gt;=typ&lt;/b&gt;" style="rhombus;whiteSpace=wrap;html=1;strokeColor=#DDA15E;fontColor=#FEFAE0;fillColor=#BC6C25;labelBackgroundColor=none;" vertex="1" parent="1">
          <mxGeometry x="264" y="360" width="100" height="100" as="geometry" />
        </mxCell>
        <mxCell id="UJ4RQ-W1k6a4QR2SdNRj-11" value="" style="edgeStyle=orthogonalEdgeStyle;rounded=0;orthogonalLoop=1;jettySize=auto;html=1;strokeColor=#DDA15E;fontColor=default;fillColor=#BC6C25;labelBackgroundColor=none;" edge="1" parent="1" source="UJ4RQ-W1k6a4QR2SdNRj-12" target="UJ4RQ-W1k6a4QR2SdNRj-13">
          <mxGeometry relative="1" as="geometry" />
        </mxCell>
        <mxCell id="UJ4RQ-W1k6a4QR2SdNRj-12" value="&lt;b style=&quot;color: rgb(0, 0, 0); font-size: 18px;&quot;&gt;Print pair, typ&lt;/b&gt;" style="shape=parallelogram;perimeter=parallelogramPerimeter;whiteSpace=wrap;html=1;fixedSize=1;labelBackgroundColor=none;fillColor=#BC6C25;strokeColor=#DDA15E;fontColor=#FEFAE0;" vertex="1" parent="1">
          <mxGeometry x="172" y="590" width="285" height="40" as="geometry" />
        </mxCell>
        <mxCell id="UJ4RQ-W1k6a4QR2SdNRj-13" value="&lt;font style=&quot;font-size: 18px; color: light-dark(rgb(26, 64, 255), rgb(0, 0, 0));&quot;&gt;&lt;b&gt;Stop&lt;/b&gt;&lt;/font&gt;" style="rounded=1;whiteSpace=wrap;html=1;labelBackgroundColor=none;fillColor=#BC6C25;strokeColor=#DDA15E;fontColor=#FEFAE0;" vertex="1" parent="1">
          <mxGeometry x="277" y="670" width="75" height="40" as="geometry" />
        </mxCell>
        <mxCell id="UJ4RQ-W1k6a4QR2SdNRj-14" value="NO" style="text;html=1;align=center;verticalAlign=middle;resizable=0;points=[];autosize=1;strokeColor=none;fillColor=none;labelBackgroundColor=none;fontColor=#FEFAE0;" vertex="1" parent="1">
          <mxGeometry x="311" y="468" width="40" height="30" as="geometry" />
        </mxCell>
        <mxCell id="UJ4RQ-W1k6a4QR2SdNRj-15" value="YES" style="text;html=1;align=center;verticalAlign=middle;resizable=0;points=[];autosize=1;strokeColor=none;fillColor=none;labelBackgroundColor=none;fontColor=#FEFAE0;" vertex="1" parent="1">
          <mxGeometry x="390" y="380" width="50" height="30" as="geometry" />
        </mxCell>
        <mxCell id="UJ4RQ-W1k6a4QR2SdNRj-16" value="&lt;b style=&quot;color: rgb(0, 0, 0); font-size: 18px;&quot;&gt;Warning!&lt;/b&gt;" style="shape=parallelogram;perimeter=parallelogramPerimeter;whiteSpace=wrap;html=1;fixedSize=1;labelBackgroundColor=none;fillColor=#BC6C25;strokeColor=#DDA15E;fontColor=#FEFAE0;" vertex="1" parent="1">
          <mxGeometry x="444" y="390" width="160" height="40" as="geometry" />
        </mxCell>
      </root>
    </mxGraphModel>
  </diagram>
</mxfile>
